/* XPM */
static char *result[] = {
/* columns rows colors chars-per-pixel */
"64 64 7 1 ",
"  c #090A14",
". c #241527",
"X c #341C27",
"o c #4D2B32",
"O c #7A4841",
"+ c #AD7757",
"@ c None",
/* pixels */
"@@@@@@@@@@@@@@@@@@@@@@@@@@@@@@@@@@@@@@@@@@@@@@@@@@@@@@@@@@@@@@@@",
"@@@@@@@@@@@@@@@@@@@@@@@@@@@@@@@@@@@@@@@@@@@@@@@@@@@@@@@@@@@@@@@@",
"@@@@@@@@@@@@@@@@@@@@@@@@@@@@@@@@@@@@@@@@@@@@@@@@@@@@@@@@@@@@@@@@",
"@@@@@@@@@@@@@@@@@@@@@@@@@@@@@@@@@@@@@@@@@@@@@@@@@@@@@@@@@@@@@@@@",
"@@@@@@@@@@@@@@@@@@@@@@@@@@@@@@@@@@@@@@@@@@@@@@@@@@@@@@@@@@@@@@@@",
"@@@@@@@@@@@@@@@@@@@@@@@@@@@@@@@@@@@@@@@@@@@@@@@@@@@@@@@@@@@@@@@@",
"@@@@@@@@@@@@@@@@@@@@@@@@@@@@@@@@@@@@@@@@@@@@@@@@@@@@@@@@@@@@@@@@",
"@@@@@@@@@@@@@@@@@@@@@@@@@@@@@@@@@@@@@@@@@@@@@@@@@@@@@@@@@@@@@@@@",
"@@@@@@@@@@@@@@@@@@@@@@@@@@@@@@@@@@@@@@@@@@@@@@@@@@@@@@@@@@@@@@@@",
"@@@@@@@@@@@@@@@@@@@@@@@@@@@@@@@@@@@@@@@@@@@@@@@@@@@@@@@@@@@@@@@@",
"@@@@@@@@@@@@@@@@@@@@@@@@@@@@@@@@@@@@@@@@@@@@@@@@@@@@@@@@@@@@@@@@",
"@@@@@@@@@@@@@@@@@@@@@@@@@@@@@@@@@@@@@@@@@@@@@@@@@@@@@@@@@@@@@@@@",
"@@@@@@@@@@@@@@@@@@@@@@@@@@@@@@@@@@@@@@@@@@@@@@@@@@@@@@@@@@@@@@@@",
"@@@@@@@@@@@@@@@@@@@@@@@@@@@@@@@@@@@@@@@@@@@@@@@@@@@@@@@@@@@@@@@@",
"@@@@@@@@@@@@@@@@@@@@@@@@@@@@@@@@@@@@@@@@@@@@@@@@@@@@@@@@@@@@@@@@",
"@@@@@@@@@@@@@@@@@@@@@@@@@@@@@@@@@@@@@@@@@@@@@@@@@@@@@@@@@@@@@@@@",
"@@@@@@@@@@@@@@@@@@@@@@@@@@@@@@@@@@@@@@@@@@@@@@@@@@@@@@@@@@@@@@@@",
"@@@@@@@@@@@@@@@@@@@@@@@@@@@@@@@@@@@@@@@@@@@@@@@@@@@@@@@@@@@@@@@@",
"@@@@@@@@@@@@@@@@@@@@@@@@@@@@@@@@@@@@@@@@@@@@@@@@@@@@@@@@@@@@@@@@",
"@@@@@@@@@@@@@@@@@@@@@@@@@@@@@@@@@@@@@@@@@@@@@@@@@@@@@@@@@@@@@@@@",
"@@@@@@@@@@@@@@@@@@@@@@@@@@@@@@@@@@@@@@@@@@@@@@@@@@@@@@@@@@@@@@@@",
"@@@@@@@@@@@@@oooooooo@@@@@@@@@@@@@@@@@@@@@@@@@@@@@@@@@@@@@@@@@@@",
"@@@@@@@@@@@ooooooooooooo@@@@@@@@@@@@@@@@@@@@@@@@@@@@@@@@@@@@@@@@",
"@@@@@@@@@@oooooooooooooo++++@@@@@@@@@@@@@@@@++++++++++@@@@@@@@@@",
"@@@@@@@@ooooooOOOoooooooo++++++++@@@@@@@@@+++OO++OOO+++@@@@@@@@@",
"@@@@@@@ooooooooOOOooooooo+o++O+++++++@@@+++++++oX+O+OO+O+@@@@@@@",
"@@@@@@oooooOOOOooOOOooooooooOO+OOO+++++++++++++oX+OOOOO+++@@@@@@",
"@@@@@ooooooooOOOOOOOOOooooooOOOO++++++++++++++++oXOOOOOOOO++@@@@",
"@@@@@ooooooooOOOOooOOOooooooooO++OOOO++++++++O+++oOO...OOooXXo@@",
"@@@@oooooOooooOOooOOOooooooooooOOOOO++OO++++O++OOOOOOOOOoooX   @",
"@@@@ooooooOOOOOOOOOOOOOOOoooOOoOOOOO+OO++OOOO++OOOOOOooOooXXX X@",
"@@@ooooooOOOOOOOOOOOOOOOOooooOOOOOOOOOO+++OOOO++OOOOOOoooXXXX.X@",
"@@@oooooOOOOoooOOOooOOOooooooOOOOOOOOOOO+OOOOOOOOOOOOOoooXXXX.X@",
"@@oooooooooooOOOOooOOOOoOoooOOOOOOOOOOOO+OOOOOOOOOOOoOOooXXXX.X@",
"@@ooooooooooOOOOOOOOOOOOOooOOoOOOOOOOOOOOOOOOOOOOOOOooooXXX...X@",
"@oooXXoooooOOOOOOOOOOOOOooooooOOOOOOOOOOOOOOOOOOooOoooXXXXXXXX@@",
"@XoXXoooooOOOoOOOOoOOOOOOOooOOOOOOOOOOOOOOOOOOOOOooXXXXXXXXXX@@@",
"@XXXooooooOOoOOOOooOOOooOoooooOOOOOOOOOOOOOOOoOooXXXX@@@@@@@@@@@",
"@XXXoXXooooooOOOooOOOOOooooooOOOOOOOOOOOOOOOOoooXX@@@@@@@@@@@@@@",
"@@XXXXXooooooOOOOOOOOOOOOoooooOOOOOOOOOOOOOoOOooX@@@@@@@@@@@@@@@",
"@@@XXXXoXXooOOOOOOOOOOOOooooOOOoOOOOOOOOOoOOoooo@@@@@@@@@@@@@@@@",
"@@@@XXoXXooOOOoOooOooOOooXooOoooOOOOOOoOOooOooo@@@@@@@@@@@@@@@@@",
"@@@@@XXXXoOOOooooOOooOooXXXooooOOOoOOOooOOoooo@@@@@@@@@@@@@@@@@@",
"@@@@@XXXXooooooooOOoooooXXXXXooOoooOOOOoOOoo@@@@@@@@@@@@@@@@@@@@",
"@@@@@@XXXooooooooOooXooXXXXXXXXoooOOoOooooo@@@@@@@@@@@@@@@@@@@@@",
"@@@@@@XXXXooXooXoooXXXXXXX@@@@XXXXoooOoooo@@@@@@@@@@@@@@@@@@@@@@",
"@@@@@@@.XXoXXooXXXXXXXX@@@@@@@@  XXooooooo@@@@@@@@@@@@@@@@@@@@@@",
"@@@@@@@ .XXXooX@@@@@@@@@@@@@@@@   XXXXXXoo@@@@@@@@@@@@@@@@@@@@@@",
"@@@@@@  .XXXXX@@@@@@@@@@@@@@@@@      XXXXo.@@@@@@@@@@@@@@@@@@@@@",
"@@@@@@  .XXX@@@@@@@@@@@@@@@@@@       ..XXoo.@@@@@@@@@@@@@@@@@@@@",
"@@@@@@  .XX.@@@@@@@@@@@@@@@@@@      @@...XX..@@@@@@@@@@@@@@@@@@@",
"@@@@@@  ..X.@@@@@@@@@@@@@@@@@      @@@@@...X.@@@@@@@@@@@@@@@@@@@",
"@@@@@@@  ...@@@@@@@@@@@@@@@@@     @@@@@@@.....@@@@@@@@@@@@@@@@@@",
"@@@@@@@  ....@@@@@@@@@@@@@@@@     @@@@@@@@....@@@@@@@@@@@@@@@@@@",
"@@@@@@@@  ....@@@@@@@@@@@@@@@   @@@@@@@@@@@....@@@@@@@@@@@@@@@@@",
"@@@@@@@@@@....@@@@@@@@@@@@@@@   @@@@@@@@@@@@...@@@@@@@@@@@@@@@@@",
"@@@@@@@@@@@@@@@@@@@@@@@@@@@@@@@@@@@@@@@@@@@@@@@@@@@@@@@@@@@@@@@@",
"@@@@@@@@@@@@@@@@@@@@@@@@@@@@@@@@@@@@@@@@@@@@@@@@@@@@@@@@@@@@@@@@",
"@@@@@@@@@@@@@@@@@@@@@@@@@@@@@@@@@@@@@@@@@@@@@@@@@@@@@@@@@@@@@@@@",
"@@@@@@@@@@@@@@@@@@@@@@@@@@@@@@@@@@@@@@@@@@@@@@@@@@@@@@@@@@@@@@@@",
"@@@@@@@@@@@@@@@@@@@@@@@@@@@@@@@@@@@@@@@@@@@@@@@@@@@@@@@@@@@@@@@@",
"@@@@@@@@@@@@@@@@@@@@@@@@@@@@@@@@@@@@@@@@@@@@@@@@@@@@@@@@@@@@@@@@",
"@@@@@@@@@@@@@@@@@@@@@@@@@@@@@@@@@@@@@@@@@@@@@@@@@@@@@@@@@@@@@@@@",
"@@@@@@@@@@@@@@@@@@@@@@@@@@@@@@@@@@@@@@@@@@@@@@@@@@@@@@@@@@@@@@@@"
};
