/* XPM */
static char *result[] = {
/* columns rows colors chars-per-pixel */
"64 64 7 1 ",
"  c #090A14",
". c #241527",
"X c #341C27",
"o c #4D2B32",
"O c #7A4841",
"+ c #AD7757",
"@ c None",
/* pixels */
"@@@@@@@@@@@@@@@@@@@@@@@@@@@@@@@@@@@@@@@@@@@@@@@@@@@@@@@@@@@@@@@@",
"@@@@@@@@@@@@@@@@@@@@@@@@@@@@@@@@@@@@@@@@@@@@@@@@@@@@@@@@@@@@@@@@",
"@@@@@@@@@@@@@@@@@@@@@@@@@@@@@@@@@@@@@@@@@@@@@@@@@@@@@@@@@@@@@@@@",
"@@@@@@@@@@@@@@@@@@@@@@@@@@@@@@@@@@@@@@@@@@@@@@@@@@@@@@@@@@@@@@@@",
"@@@@@@@@@@@@@@@@@@@@@@@@@@@@@@@@@@@@@@@@@@@@@@@@@@@@@@@@@@@@@@@@",
"@@@@@@@@@@@@@@@@@@@@@@@@@@@@@@@@@@@@@@@@@@@@@@@@@@@@@@@@@@@@@@@@",
"@@@@@@@@@@@@@@@@@@@@@@@@@@@@@@@@@@@@@@@@@@@@@@@@@@@@@@@@@@@@@@@@",
"@@@@@@@@@@@@@@@@@@@@@@@@@@@@@@@@@@@@@@@@@@@@@@@@@@@@@@@@@@@@@@@@",
"@@@@@@@@@@@@@@@@@@@@@@@@@@@@@@@@@@@@@@@@@@@@@@@@@@@@@@@@@@@@@@@@",
"@@@@@@@@@@@@@@@@@@@@@@@@@@@@@@@@@@@@@@@@@@@@@@@@@@@@@@@@@@@@@@@@",
"@@@@@@@@@@@@@@@@@@@@@@@@@@@@@@@@@@@@@@@@@@@@@@@@@@@@@@@@@@@@@@@@",
"@@@@@@@@@@@@@@@@@@@@@@@@@@@@@@@@@@@@@@@@@@@@@@@@@@@@@@@@@@@@@@@@",
"@@@@@@@@@@@@@@@@@@@@@@@@@@@@@@@@@@@@@@@@@@@@@@@@@@@@@@@@@@@@@@@@",
"@@@@@@@@@@@@@@@@@@@@@@@@@@@@@@@@@@@@@@@@@@@@@@@@@@@@@@@@@@@@@@@@",
"@@@@@@@@@@@@@@@@@@@@@@@@@@@@@@@@@@@@@@@@@@@@@@@@@@@@@@@@@@@@@@@@",
"@@@@@@@@@@@@@@@@@@@@@@@@@@@@@@@@@@@@@@@@@@@@@@@@@@@@@@@@@@@@@@@@",
"@@@@@@@@@@@@@@@@@@@@@@@@@@@@@@@@@@@@@@@@@@@@@@@@@@@@@@@@@@@@@@@@",
"@@@@@@@@@@@@@@@@@@@@@@@@@@@@@@@@@@@@@@@@@@@@@@@@@@@@@@@@@@@@@@@@",
"@@@@@@@@@@@@@@@@@@@@@@@@@@@@@@@@@@@@@@@@@@@@@@@@@@@@@@@@@@@@@@@@",
"@@@@@@@@@@@@@@@@@@@@@@@@@@@@@@@@@@@@@@@@@@@@@@@@@@@@@@@@@@@@@@@@",
"@@@@@@@@@@@@@@@@@@@@@@@@@@@@@@@@@@@@@@@@@@@@@@@@@@@@@@@@@@@@@@@@",
"@@@@@@@@@@@@@@@@@@@@@@@@@@@@@@@@@@@@@@@@@@@@@@@@@@@@@@@@@@@@@@@@",
"@@@@@@@@@@@@@oooooooooo@@@@@@@@@@@@@@@@@@@@@@@@@@@@@@@@@@@@@@@@@",
"@@@@@@@@@@@ooooooooooooo++++@@@@@@@@@@@@@@@@@@@@@@@@@@@@@@@@@@@@",
"@@@@@@@@@@ooooooooooooooo++++++++@@@@@@@@@@@++++++++++@@@@@@@@@@",
"@@@@@@@@oooooOOOooooooooo+o++O+++++++@@@@@+++OO++OOO+++@@@@@@@@@",
"@@@@@@@oooooooOOOoooooooooooOO+OOO+++++++++++++oX+O+OO+O+@@@@@@@",
"@@@@@@ooooOOOOooOOOoooooooooOOOO+++++++++++++++oX+OOOOO+++@@@@@@",
"@@@@@oooooooOOOOOOOOOoooooooooO++OOOO+++++++++++oXOOOOOOOO++@@@@",
"@@@@@oooooooOOOOooOOOooooooooooOOOOO++OO+++++O+++oOO...OOooXXo@@",
"@@@@ooooOooooOOooOOOooooooooOOoOOOOO+OO++O++O++OOOOOOOOOoooX   @",
"@@@@oooooOOOOOOOOOOOOOOOoooooOOOOOOOOOO+++OOO++OOOOOOooOooXXX X@",
"@@@oooooOOOOOOOOOOOOOOOOoooooOOOOOOOOOOO+OOOOO++OOOOOOoooXXXX.X@",
"@@@ooooOOOOoooOOOooOOOooooooOOOOOOOOOOOO+OOOOOOOOOOOOOoooXXXX.X@",
"@@ooooooooooOOOOooOOOOoOoooOOoOOOOOOOOOOOOOOOOOOOOOOoOOooXXXX.X@",
"@@oooooooooOOOOOOOOOOOOOooooooOOOOOOOOOOOOOOOOOOOOOOooooXXX...X@",
"@oooXXooooOOOOOOOOOOOOOoooooOOOOOOOOOOOOOOOOOOOOooOoooXXXXXXXX@@",
"@XoXXooooOOOoOOOOoOOOOOOOoooooOOOOOOOOOOOOOOOoOOOooXXXXXXXXXX@@@",
"@XXXoooooOOoOOOOooOOOooOoooooOOOOOOOOOOOOOOOOooooXXXX@@@@@@@@@@@",
"@XXXoXXoooooOOOooOOOOOoooooooOOOOOOOOOOOOOOoOOooXX@@@@@@@@@@@@@@",
"@@XXXXXoooooOOOOOOOOOOOOoooOOOoOOOOOOOOOOoOOoooo@@@@@@@@@@@@@@@@",
"@@@XXXXoXooOOOOOOOOOOOOooooOoooOOOOOOOoOOooOooo@@@@@@@@@@@@@@@@@",
"@@@@XXoXXoOOOoOooOooOOoooXooooOOOoOOOOooOOoooo@@@@@@@@@@@@@@@@@@",
"@@@@@XXXXOOOooooOOooOoooXXoXooOoooOOOOOoOOoo@@@@@@@@@@@@@@@@@@@@",
"@@@@@XXXXoooooooOOooooooXXXXoooooOOooOooooo@@@@@@@@@@@@@@@@@@@@@",
"@@@@@@XXXoooooooOoooXooXXXXXXoXooooooOoooo@@@@@@@@@@@@@@@@@@@@@@",
"@@@@@@.XXXooXooXoooXXXXX@@@XXXXXXXooooooo@@@@@@@@@@@@@@@@@@@@@@@",
"@@@@@@.XXXoXXooXXXXXXXX@@@@@@@@@.XXooo.  @@@@@@@@@@@@@@@@@@@@@@@",
"@@@@@..XXXXXooXXX@@@@@@@@@@@@@@@@.XXoo.   @@@@@@@@@@@@@@@@@@@@@@",
"@@@@@.XXXX..   @@@@@@@@@@@@@@@@@@.XXo..    @@@@@@@@@@@@@@@@@@@@@",
"@@@@@.XX...    @@@@@@@@@@@@@@@@@@..Xo.     @@@@@@@@@@@@@@@@@@@@@",
"@@@@.XX...@     @@@@@@@@@@@@@@@@@@.X..@@    @@@@@@@@@@@@@@@@@@@@",
"@@@@.X...@@@     @@@@@@@@@@@@@@@@....@@@@     @@@@@@@@@@@@@@@@@@",
"@@@@....@@@@@     @@@@@@@@@@@@@@@....@@@@@     @@@@@@@@@@@@@@@@@",
"@@@@.....@@@@@     @@@@@@@@@@@@@@...@@@@@@@    @@@@@@@@@@@@@@@@@",
"@@@@@....@@@@@@    @@@@@@@@@@@@@@...@@@@@@@@@@@@@@@@@@@@@@@@@@@@",
"@@@@@@@@@@@@@@@@@@@@@@@@@@@@@@@@@@@@@@@@@@@@@@@@@@@@@@@@@@@@@@@@",
"@@@@@@@@@@@@@@@@@@@@@@@@@@@@@@@@@@@@@@@@@@@@@@@@@@@@@@@@@@@@@@@@",
"@@@@@@@@@@@@@@@@@@@@@@@@@@@@@@@@@@@@@@@@@@@@@@@@@@@@@@@@@@@@@@@@",
"@@@@@@@@@@@@@@@@@@@@@@@@@@@@@@@@@@@@@@@@@@@@@@@@@@@@@@@@@@@@@@@@",
"@@@@@@@@@@@@@@@@@@@@@@@@@@@@@@@@@@@@@@@@@@@@@@@@@@@@@@@@@@@@@@@@",
"@@@@@@@@@@@@@@@@@@@@@@@@@@@@@@@@@@@@@@@@@@@@@@@@@@@@@@@@@@@@@@@@",
"@@@@@@@@@@@@@@@@@@@@@@@@@@@@@@@@@@@@@@@@@@@@@@@@@@@@@@@@@@@@@@@@",
"@@@@@@@@@@@@@@@@@@@@@@@@@@@@@@@@@@@@@@@@@@@@@@@@@@@@@@@@@@@@@@@@"
};
