/* XPM */
static char *result[] = {
/* columns rows colors chars-per-pixel */
"64 64 7 1 ",
"  c #090A14",
". c #241527",
"X c #341C27",
"o c #4D2B32",
"O c #7A4841",
"+ c #AD7757",
"@ c #FFFFFF",
/* pixels */
"@@@@@@@@@@@@@@@@@@@@@@@@@@@@@@@@@@@@@@@@@@@@@@@@@@@@@@@@@@@@@@@@",
"@@@@@@@@@@@@@@@@@@@@@@@@@@@@@@@@@@@@@@@@@@@@@@@@@@@@@@@@@@@@@@@@",
"@@@@@@@@@@@@@@@@@@@@@@@@@@@@@@@@@@@@@@@@@@@@@@@@@@@@@@@@@@@@@@@@",
"@@@@@@@@@@@@@@@@@@@@@@@@@@@@@@@@@@@@@@@@@@@@@@@@@@@@@@@@@@@@@@@@",
"@@@@@@@@@@@@@@@@@@@@@@@@@@@@@@@@@@@@@@@@@@@@@@@@@@@@@@@@@@@@@@@@",
"@@@@@@@@@@@@@@@@@@@@@@@@@@@@@@@@@@@@@@@@@@@@@@@@@@@@@@@@@@@@@@@@",
"@@@@@@@@@@@@@@@@@@@@@@@@@@@@@@@@@@@@@@@@@@@@@@@@@@@@@@@@@@@@@@@@",
"@@@@@@@@@@@@@@@@@@@@@@@@@@@@@@@@@@@@@@@@@@@@@@@@@@@@@@@@@@@@@@@@",
"@@@@@@@@@@@@@@@@@@@@@@@@@@@@@@@@@@@@@@@@@@@@@@@@@@@@@@@@@@@@@@@@",
"@@@@@@@@@@@@@@@@@@@@@@@@@@@@@@@@@@@@@@@@@@@@@@@@@@@@@@@@@@@@@@@@",
"@@@@@@@@@@@@@@@@@@@@@@@@@@@@@@@@@@@@@@@@@@@@@@@@@@@@@@@@@@@@@@@@",
"@@@@@@@@@@@@@@@@@@@@@@@@@@@@@@@@@@@@@@@@@@@@@@@@@@@@@@@@@@@@@@@@",
"@@@@@@@@@@@@@@@@@@@@@@@@@@@@@@@@@@@@@@@@@@@@@@@@@@@@@@@@@@@@@@@@",
"@@@@@@@@@@@@@@@@@@@@@@@@@@@@@@@@@@@@@@@@@@@@@@@@@@@@@@@@@@@@@@@@",
"@@@@@@@@@@@@@@@@@@@@@@@@@@@@@@@@@@@@@@@@@@@@@@@@@@@@@@@@@@@@@@@@",
"@@@@@@@@@@@@@@@@@@@@@@@@@@@@@@@@@@@@@@@@@@@@@@@@@@@@@@@@@@@@@@@@",
"@@@@@@@@@@@@@@@@@@@@@@@@@@@@@@@@@@@@@@@@@@@@@@@@@@@@@@@@@@@@@@@@",
"@@@@@@@@@@@@@@@@@@@@@@@@@@@@@@@@@@@@@@@@@@@@@@@@@@@@@@@@@@@@@@@@",
"@@@@@@@@@@@@@@@@@@@@@@@@@@@@@@@@@@@@@@@@@@@@@@@@@@@@@@@@@@@@@@@@",
"@@@@@@@@@@@@@@@@@@@@@@@@@@@@@@@@@@@@@@@@@@@@@@@@@@@@@@@@@@@@@@@@",
"@@@@@@@@@@@@@@@@@@@@@@@@@@@@@@@@@@@@@@@@@@@@@@@@@@@@@@@@@@@@@@@@",
"@@@@@@@@@@@@@oooooooo@@@@@@@@@@@@@@@@@@@@@@@@@@@@@@@@@@@@@@@@@@@",
"@@@@@@@@@@@ooooooooooooo@@@@@@@@@@@@@@@@@@@@@@@@@@@@@@@@@@@@@@@@",
"@@@@@@@@@@oooooooooooooo++++@@@@@@@@@@@@@@@@++++++++++@@@@@@@@@@",
"@@@@@@@@oooooooOOOooooooo++++++++@@@@@@@@@+++OO++OOO+++@@@@@@@@@",
"@@@@@@@oooooooooOOOoooooo+o++O+++++++@@@+++++++oX+O+OO+O+@@@@@@@",
"@@@@@@ooooooOOOOooOOOoooooooOO+OOO+++++++++++++oX+OOOOO+++@@@@@@",
"@@@@@oooooooooOOOOOOOOOoooooOOOO++++++++++++++++oXOOOOOOOO++@@@@",
"@@@@@oooooooooOOOOooOOOoooooooO++OOOO++++++++O+++oOO...OOooXXo@@",
"@@@@ooooooOooooOOooOOOoooooooooOOOOO++OO++++O++OOOOOOOOOoooX   @",
"@@@@oooooooOOOOOOOOOOOOOOOooOOoOOOOO+OO++OOOO++OOOOOOooOooXXX X@",
"@@@oooooooOOOOOOOOOOOOOOOOoooOOOOOOOOOO+++OOOO++OOOOOOoooXXXX.X@",
"@@@ooooooOOOOoooOOOooOOOoooooOOOOOOOOOOO+OOOOOOOOOOOOOoooXXXX.X@",
"@@ooooooooooooOOOOooOOOOoOooOOOOOOOOOOOO+OOOOOOOOOOOoOOooXXXX.X@",
"@@oooooooooooOOOOOOOOOOOOOooOoOOOOOOOOOOOOOOOOOOOOOOooooXXX...X@",
"@oooXXooooooOOOOOOOOOOOOOoooooOOOOOOOOOOOOOOOOOOooOoooXXXXXXXX@@",
"@XoXXooooooOOOoOOOOoOOOOOOOoOOOOOOOOOOOOOOOOOOOOOooXXXXXXXXXX@@@",
"@XXXoooooooOOoOOOOooOOOooOooooOOOOOOOOOOOOOOOoOooXXXX@@@@@@@@@@@",
"@XXXoXXoooooooOOOooOOOOOoooooooOOOOOOOOOOOOOOoooXX@@@@@@@@@@@@@@",
"@@XXXXXoooooooOOOOOOOOOOOOoooooOOOOOOOOOOOOoOOooX@@@@@@@@@@@@@@@",
"@@@XXXXoXXoooOOOOOOOOOOOOooooOOOoOOOOOOOOoOOoooo@@@@@@@@@@@@@@@@",
"@@@@XXoXXoooOOOoOooOooOOoXXXoOoooOOOOOOoOooOooo@@@@@@@@@@@@@@@@@",
"@@@@@XXXXooOOOooooOOooOoXXXXXoooOOOoOOOooOoooo@@@@@@@@@@@@@@@@@@",
"@@@@@XXXXoooooooooOOooooXXXXXXooOoooOOOOoOoo@@@@@@@@@@@@@@@@@@@@",
"@@@@@@XXXoooooooooooXooXXX@@XXXoOooOOoooooo@@@@@@@@@@@@@@@@@@@@@",
"@@@@@@XXXXooXooXoooXXXXXX@@@@@XXXXooooOoo@@@@@@@@@@@@@@@@@@@@@@@",
"@@@@@@@ XXoXXooXXXXXXXX@@@@@@@@@XXXXoooooo@@@@@@@@@@@@@@@@@@@@@@",
"@@@@@@   XXXooX..@@@@@@@@@@@@@@@  XXXoooooo@@@@@@@@@@@@@@@@@@@@@",
"@@@@@    .XXXX..@@@@@@@@@@@@@@@@    XXXXooo.@@@@@@@@@@@@@@@@@@@@",
"@@@@      .XXX.@@@@@@@@@@@@@@@@@     XXXXXoo.@@@@@@@@@@@@@@@@@@@",
"@@@@      @.XX.@@@@@@@@@@@@@@@@@     @@.XXXX.@@@@@@@@@@@@@@@@@@@",
"@@@     @@@..X.@@@@@@@@@@@@@@@@@    @@@@...X..@@@@@@@@@@@@@@@@@@",
"@@@    @@@@....@@@@@@@@@@@@@@@@     @@@@@......@@@@@@@@@@@@@@@@@",
"@@@    @@@@@....@@@@@@@@@@@@@@@    @@@@@@@.....@@@@@@@@@@@@@@@@@",
"@@@   @@@@@@.....@@@@@@@@@@@@@@   @@@@@@@@@@....@@@@@@@@@@@@@@@@",
"@@@@@@@@@@@@@....@@@@@@@@@@@@@@   @@@@@@@@@@....@@@@@@@@@@@@@@@@",
"@@@@@@@@@@@@@@@@@@@@@@@@@@@@@@@@@@@@@@@@@@@@@@@@@@@@@@@@@@@@@@@@",
"@@@@@@@@@@@@@@@@@@@@@@@@@@@@@@@@@@@@@@@@@@@@@@@@@@@@@@@@@@@@@@@@",
"@@@@@@@@@@@@@@@@@@@@@@@@@@@@@@@@@@@@@@@@@@@@@@@@@@@@@@@@@@@@@@@@",
"@@@@@@@@@@@@@@@@@@@@@@@@@@@@@@@@@@@@@@@@@@@@@@@@@@@@@@@@@@@@@@@@",
"@@@@@@@@@@@@@@@@@@@@@@@@@@@@@@@@@@@@@@@@@@@@@@@@@@@@@@@@@@@@@@@@",
"@@@@@@@@@@@@@@@@@@@@@@@@@@@@@@@@@@@@@@@@@@@@@@@@@@@@@@@@@@@@@@@@",
"@@@@@@@@@@@@@@@@@@@@@@@@@@@@@@@@@@@@@@@@@@@@@@@@@@@@@@@@@@@@@@@@",
"@@@@@@@@@@@@@@@@@@@@@@@@@@@@@@@@@@@@@@@@@@@@@@@@@@@@@@@@@@@@@@@@"
};
