/* XPM */
static char *result[] = {
/* columns rows colors chars-per-pixel */
"64 64 7 1 ",
"  c #090A14",
". c #241527",
"X c #341C27",
"o c #4D2B32",
"O c #7A4841",
"+ c #AD7757",
"@ c None",
/* pixels */
"@@@@@@@@@@@@@@@@@@@@@@@@@@@@@@@@@@@@@@@@@@@@@@@@@@@@@@@@@@@@@@@@",
"@@@@@@@@@@@@@@@@@@@@@@@@@@@@@@@@@@@@@@@@@@@@@@@@@@@@@@@@@@@@@@@@",
"@@@@@@@@@@@@@@@@@@@@@@@@@@@@@@@@@@@@@@@@@@@@@@@@@@@@@@@@@@@@@@@@",
"@@@@@@@@@@@@@@@@@@@@@@@@@@@@@@@@@@@@@@@@@@@@@@@@@@@@@@@@@@@@@@@@",
"@@@@@@@@@@@@@@@@@@@@@@@@@@@@@@@@@@@@@@@@@@@@@@@@@@@@@@@@@@@@@@@@",
"@@@@@@@@@@@@@@@@@@@@@@@@@@@@@@@@@@@@@@@@@@@@@@@@@@@@@@@@@@@@@@@@",
"@@@@@@@@@@@@@@@@@@@@@@@@@@@@@@@@@@@@@@@@@@@@@@@@@@@@@@@@@@@@@@@@",
"@@@@@@@@@@@@@@@@@@@@@@@@@@@@@@@@@@@@@@@@@@@@@@@@@@@@@@@@@@@@@@@@",
"@@@@@@@@@@@@@@@@@@@@@@@@@@@@@@@@@@@@@@@@@@@@@@@@@@@@@@@@@@@@@@@@",
"@@@@@@@@@@@@@@@@@@@@@@@@@@@@@@@@@@@@@@@@@@@@@@@@@@@@@@@@@@@@@@@@",
"@@@@@@@@@@@@@@@@@@@@@@@@@@@@@@@@@@@@@@@@@@@@@@@@@@@@@@@@@@@@@@@@",
"@@@@@@@@@@@@@@@@@@@@@@@@@@@@@@@@@@@@@@@@@@@@@@@@@@@@@@@@@@@@@@@@",
"@@@@@@@@@@@@@@@@@@@@@@@@@@@@@@@@@@@@@@@@@@@@@@@@@@@@@@@@@@@@@@@@",
"@@@@@@@@@@@@@@@@@@@@@@@@@@@@@@@@@@@@@@@@@@@@@@@@@@@@@@@@@@@@@@@@",
"@@@@@@@@@@@@@@@@@@@@@@@@@@@@@@@@@@@@@@@@@@@@@@@@@@@@@@@@@@@@@@@@",
"@@@@@@@@@@@@@@@@@@@@@@@@@@@@@@@@@@@@@@@@@@@@@@@@@@@@@@@@@@@@@@@@",
"@@@@@@@@@@@@@@@@@@@@@@@@@@@@@@@@@@@@@@@@@@@@@@@@@@@@@@@@@@@@@@@@",
"@@@@@@@@@@@@@@@@@@@@@@@@@@@@@@@@@@@@@@@@@@@@@@@@@@@@@@@@@@@@@@@@",
"@@@@@@@@@@@@@@@@@@@@@@@@@@@@@@@@@@@@@@@@@@@@@@@@@@@@@@@@@@@@@@@@",
"@@@@@@@@@@@@@@@@@@@@@@@@@@@@@@@@@@@@@@@@@@@@@@@@@@@@@@@@@@@@@@@@",
"@@@@@@@@@@@@@@@@@@@@@@@@@@@@@@@@@@@@@@@@@@@@@@@@@@@@@@@@@@@@@@@@",
"@@@@@@@@@@@@@oooooooo@@@@@@@@@@@@@@@@@@@@@@@@@@@@@@@@@@@@@@@@@@@",
"@@@@@@@@@@@ooooooooooooo@@@@@@@@@@@@@@@@@@@@@@@@@@@@@@@@@@@@@@@@",
"@@@@@@@@@@oooooooooooooo++++@@@@@@@@@@@@@@@@@@@@@@@@@@@@@@@@@@@@",
"@@@@@@@@ooooooOOOoooooooo++++++++@@@@@@@@@@@++++++++++@@@@@@@@@@",
"@@@@@@@ooooooooOOOooooooo+o++O+++++++@@@@@+++OO++OOO+++@@@@@@@@@",
"@@@@@@oooooOOOOooOOOooooooooOO+OOO++++@@+++++++oX+O+OO+O+@@@@@@@",
"@@@@@ooooooooOOOOOOOOOooooooOOOO+++++++++++++++oX+OOOOO+++@@@@@@",
"@@@@@ooooooooOOOOooOOOooooooooO++OOOO+++++++++++oXOOOOOOOO++@@@@",
"@@@@oooooOooooOOooOOOooooooooooOOOOO+++++++++O+++oOO...OOooXXo@@",
"@@@@ooooooOOOOOOOOOOOOOOOoooOOoOOOOO+OOO++++O++OOOOOOOOOoooX   @",
"@@@ooooooOOOOOOOOOOOOOOOOooooOOOOOOOOOO++OOOO++OOOOOOooOooXXX X@",
"@@@oooooOOOOoooOOOooOOOooooooOOOOOOOOOOO++OOOO++OOOOOOoooXXXX.X@",
"@@oooooooooooOOOOooOOOOoOoooOOOOOOOOOOOO+OOOOOOOOOOOOOoooXXXX.X@",
"@@ooooooooooOOOOOOOOOOOOOooOOoOOOOOOOOOOOOOOOOOOOOOOoOOooXXXX.X@",
"@oooXXoooooOOOOOOOOOOOOOooooooOOOOOOOOOOOOOOOOOOOOOOooooXXX...X@",
"@XoXXoooooOOOoOOOOoOOOOOOOooOOOOOOOOOOOOOOOOOOOOooOoooXXXXXXXX@@",
"@XXXooooooOOoOOOOooOOOooOoooooOOOOOOOOOOOOOOOoOOOooXXXXXXXXXX@@@",
"@XXXoXXooooooOOOooOOOOOooooooOOOOOOOOOOOOOOOOoOooXXXX@@@@@@@@@@@",
"@@XXXXXooooooOOOOOOOOOOOOooooOOOOOOOOOOOOOoOOOooXX@@@@@@@@@@@@@@",
"@@@XXXXoXXooOOOOOOOOOOOOoooOOOoOOOOOOOOOoOOoOoooX@@@@@@@@@@@@@@@",
"@@@@XXoXXooOOOoOooOooOOooXoOoooOOOOOOoOOooOoooo@@@@@@@@@@@@@@@@@",
"@@@@@XXXXoOOOooooOOooOooXXooooOOOoOOOooOOoooo@@@@@@@@@@@@@@@@@@@",
"@@@@@XXXXooooooooOOoooooXXoXooOoooOOOOoOOooo@@@@@@@@@@@@@@@@@@@@",
"@@@@@@XXXooooooooOooXooXXXXXoooooOOoOoooooo@@@@@@@@@@@@@@@@@@@@@",
"@@@@@@XXXXooXooXoooXXXXXXXXXXoXoooooOooo  @@@@@@@@@@@@@@@@@@@@@@",
"@@@@@@@XXXoXXooXXXXXXXX@@@XXXXXXXooooo.o  @@@@@@@@@@@@@@@@@@@@@@",
"@@@@@@@.XXXXooXX@@@@@@@@@@@@@@...XXooo    @@@@@@@@@@@@@@@@@@@@@@",
"@@@@@@..XXX...@@@@@@@@@@@@@@@@@.XXoo.      @@@@@@@@@@@@@@@@@@@@@",
"@@@@@@.XXX..@@@@@@@@@@@@@@@@@@.XXXo..       @@@@@@@@@@@@@@@@@@@@",
"@@@@@@.X... @@@@@@@@@@@@@@@@@@.Xoo..@@       @@@@@@@@@@@@@@@@@@@",
"@@@@@@...   @@@@@@@@@@@@@@@@@..Xo..@@@@@     @@@@@@@@@@@@@@@@@@@",
"@@@@@@@...  @@@@@@@@@@@@@@@@@.....@@@@@@@@    @@@@@@@@@@@@@@@@@@",
"@@@@@@@....  @@@@@@@@@@@@@@@@.....@@@@@@@@    @@@@@@@@@@@@@@@@@@",
"@@@@@@@@...   @@@@@@@@@@@@@@@...@@@@@@@@@@@    @@@@@@@@@@@@@@@@@",
"@@@@@@@@@@    @@@@@@@@@@@@@@@...@@@@@@@@@@@@   @@@@@@@@@@@@@@@@@",
"@@@@@@@@@@@@@@@@@@@@@@@@@@@@@@@@@@@@@@@@@@@@@@@@@@@@@@@@@@@@@@@@",
"@@@@@@@@@@@@@@@@@@@@@@@@@@@@@@@@@@@@@@@@@@@@@@@@@@@@@@@@@@@@@@@@",
"@@@@@@@@@@@@@@@@@@@@@@@@@@@@@@@@@@@@@@@@@@@@@@@@@@@@@@@@@@@@@@@@",
"@@@@@@@@@@@@@@@@@@@@@@@@@@@@@@@@@@@@@@@@@@@@@@@@@@@@@@@@@@@@@@@@",
"@@@@@@@@@@@@@@@@@@@@@@@@@@@@@@@@@@@@@@@@@@@@@@@@@@@@@@@@@@@@@@@@",
"@@@@@@@@@@@@@@@@@@@@@@@@@@@@@@@@@@@@@@@@@@@@@@@@@@@@@@@@@@@@@@@@",
"@@@@@@@@@@@@@@@@@@@@@@@@@@@@@@@@@@@@@@@@@@@@@@@@@@@@@@@@@@@@@@@@",
"@@@@@@@@@@@@@@@@@@@@@@@@@@@@@@@@@@@@@@@@@@@@@@@@@@@@@@@@@@@@@@@@"
};
