/* XPM */
static char *result[] = {
/* columns rows colors chars-per-pixel */
"64 64 7 1 ",
"  c #090A14",
". c #241527",
"X c #341C27",
"o c #4D2B32",
"O c #7A4841",
"+ c #AD7757",
"@ c #FFFFFF",
/* pixels */
"@@@@@@@@@@@@@@@@@@@@@@@@@@@@@@@@@@@@@@@@@@@@@@@@@@@@@@@@@@@@@@@@",
"@@@@@@@@@@@@@@@@@@@@@@@@@@@@@@@@@@@@@@@@@@@@@@@@@@@@@@@@@@@@@@@@",
"@@@@@@@@@@@@@@@@@@@@@@@@@@@@@@@@@@@@@@@@@@@@@@@@@@@@@@@@@@@@@@@@",
"@@@@@@@@@@@@@@@@@@@@@@@@@@@@@@@@@@@@@@@@@@@@@@@@@@@@@@@@@@@@@@@@",
"@@@@@@@@@@@@@@@@@@@@@@@@@@@@@@@@@@@@@@@@@@@@@@@@@@@@@@@@@@@@@@@@",
"@@@@@@@@@@@@@@@@@@@@@@@@@@@@@@@@@@@@@@@@@@@@@@@@@@@@@@@@@@@@@@@@",
"@@@@@@@@@@@@@@@@@@@@@@@@@@@@@@@@@@@@@@@@@@@@@@@@@@@@@@@@@@@@@@@@",
"@@@@@@@@@@@@@@@@@@@@@@@@@@@@@@@@@@@@@@@@@@@@@@@@@@@@@@@@@@@@@@@@",
"@@@@@@@@@@@@@@@@@@@@@@@@@@@@@@@@@@@@@@@@@@@@@@@@@@@@@@@@@@@@@@@@",
"@@@@@@@@@@@@@@@@@@@@@@@@@@@@@@@@@@@@@@@@@@@@@@@@@@@@@@@@@@@@@@@@",
"@@@@@@@@@@@@@@@@@@@@@@@@@@@@@@@@@@@@@@@@@@@@@@@@@@@@@@@@@@@@@@@@",
"@@@@@@@@@@@@@@@@@@@@@@@@@@@@@@@@@@@@@@@@@@@@@@@@@@@@@@@@@@@@@@@@",
"@@@@@@@@@@@@@@@@@@@@@@@@@@@@@@@@@@@@@@@@@@@@@@@@@@@@@@@@@@@@@@@@",
"@@@@@@@@@@@@@@@@@@@@@@@@@@@@@@@@@@@@@@@@@@@@@@@@@@@@@@@@@@@@@@@@",
"@@@@@@@@@@@@@@@@@@@@@@@@@@@@@@@@@@@@@@@@@@@@@@@@@@@@@@@@@@@@@@@@",
"@@@@@@@@@@@@@@@@@@@@@@@@@@@@@@@@@@@@@@@@@@@@@@@@@@@@@@@@@@@@@@@@",
"@@@@@@@@@@@@@@@@@@@@@@@@@@@@@@@@@@@@@@@@@@@@@@@@@@@@@@@@@@@@@@@@",
"@@@@@@@@@@@@@@@@@@@@@@@@@@@@@@@@@@@@@@@@@@@@@@@@@@@@@@@@@@@@@@@@",
"@@@@@@@@@@@@@@@@@@@@@@@@@@@@@@@@@@@@@@@@@@@@@@@@@@@@@@@@@@@@@@@@",
"@@@@@@@@@@@@@@@@@@@@@@@@@@@@@@@@@@@@@@@@@@@@@@@@@@@@@@@@@@@@@@@@",
"@@@@@@@@@@@@@@@@@@@@@@@@@@@@@@@@@@@@@@@@@@@@@@@@@@@@@@@@@@@@@@@@",
"@@@@@@@@@@@@@@@@@@@@@@@@@@@@@@@@@@@@@@@@@@@@@@@@@@@@@@@@@@@@@@@@",
"@@@@@@@@@@@@@oooooooooo@@@@@@@@@@@@@@@@@@@@@@@@@@@@@@@@@@@@@@@@@",
"@@@@@@@@@@@ooooooooooooo++++@@@@@@@@@@@@@@@@++++++++++@@@@@@@@@@",
"@@@@@@@@@@ooooooooooooooo++++++++@@@@@@@@@+++OO++OOO+++@@@@@@@@@",
"@@@@@@@@ooooooOOOoooooooo+o++O+++++++@@@+++++++oX+O+OO+O+@@@@@@@",
"@@@@@@@ooooooooOOOooooooooooOO+OOO+++++++++++++oX+OOOOO+++@@@@@@",
"@@@@@@oooooOOOOooOOOooooooooOOOO++++++++++++++++oXOOOOOOOO++@@@@",
"@@@@@ooooooooOOOOOOOOOooooooooO++OOOO++++++++O+++oOO...OOooXXo@@",
"@@@@@ooooooooOOOOooOOOoooooooooOOOOO++OO++++O++OOOOOOOOOoooX   @",
"@@@@oooooOooooOOooOOOoooooooOOoOOOOO+OO++OOOO++OOOOOOooOooXXX X@",
"@@@@ooooooOOOOOOOOOOOOOOOooooOOOOOOOOOO+++OOOO++OOOOOOoooXXXX.X@",
"@@@ooooooOOOOOOOOOOOOOOOOooooOOOOOOOOOOO+OOOOOOOOOOOOOoooXXXX.X@",
"@@@oooooOOOOoooOOOooOOOoooooOOOOOOOOOOOO+OOOOOOOOOOOoOOooXXXX.X@",
"@@oooooooooooOOOOooOOOOoOooOOoOOOOOOOOOOOOOOOOOOOOOOooooXXX...X@",
"@@ooooooooooOOOOOOOOOOOOOoooooOOOOOOOOOOOOOOOOOOooOoooXXXXXXXX@@",
"@oooXXoooooOOOOOOOOOOOOOooooOOOOOOOOOOOOOOOOOOOOOooXXXXXXXXXX@@@",
"@XoXXoooooOOOoOOOOoOOOOOOOooooOOOOOOOOOOOOOOOoOooXXXX@@@@@@@@@@@",
"@XXXooooooOOoOOOOooOOOooOooooOOOOOOOOOOOOOOOOoooXX@@@@@@@@@@@@@@",
"@XXXoXXooooooOOOooOOOOOooooooOOOOOOOOOOOOOOoOOooX@@@@@@@@@@@@@@@",
"@@XXXXXooooooOOOOOOOOOOOOooOOOoOOOOOOOOOOoOOoooo@@@@@@@@@@@@@@@@",
"@@@XXXXoXXooOOOOOOOOOOOOoooOoooOOOOOOOoOOooOooo@@@@@@@@@@@@@@@@@",
"@@@@XXoXXooOOOoOooOooOOooXooooOOOoOOOOooOOoooo@@@@@@@@@@@@@@@@@@",
"@@@@@XXXXoOOOooooOOooOooXXoXooOoooOOOOOoOOoo@@@@@@@@@@@@@@@@@@@@",
"@@@@@XXXXooooooooOOoooooXXXXoXoooOOooOooooo@@@@@@@@@@@@@@@@@@@@@",
"@@@@@@XXXooooooooOooXooXXXXXXXXooooooOoooo@@@@@@@@@@@@@@@@@@@@@@",
"@@@@@@XXXXooXooXoooXXXX@@@@@XXXXXXXXooooo@@@@@@@@@@@@@@@@@@@@@@@",
"@@@@@@@.XXoXXooXXXXXX@@@@@@@@@@@  XXXoo.@@@@@@@@@@@@@@@@@@@@@@@@",
"@@@@@@@.XXXXooX@@@@@@@@@@@@@@@@@   .XXo..@@@@@@@@@@@@@@@@@@@@@@@",
"@@@@@@..XXX..   @@@@@@@@@@@@@@@@    .XXo.@@@@@@@@@@@@@@@@@@@@@@@",
"@@@@@@..XX..    @@@@@@@@@@@@@@@@@   ..XX.@@@@@@@@@@@@@@@@@@@@@@@",
"@@@@@@.XX..@     @@@@@@@@@@@@@@@@@@  .... @@@@@@@@@@@@@@@@@@@@@@",
"@@@@@@....@@@      @@@@@@@@@@@@@@@@@@ ...  @@@@@@@@@@@@@@@@@@@@@",
"@@@@@@....@@@@      @@@@@@@@@@@@@@@@@@.... @@@@@@@@@@@@@@@@@@@@@",
"@@@@@@.....@@@@     @@@@@@@@@@@@@@@@@@....@@@@@@@@@@@@@@@@@@@@@@",
"@@@@@@@....@@@@@@@@@@@@@@@@@@@@@@@@@@@@...@@@@@@@@@@@@@@@@@@@@@@",
"@@@@@@@@@@@@@@@@@@@@@@@@@@@@@@@@@@@@@@@@@@@@@@@@@@@@@@@@@@@@@@@@",
"@@@@@@@@@@@@@@@@@@@@@@@@@@@@@@@@@@@@@@@@@@@@@@@@@@@@@@@@@@@@@@@@",
"@@@@@@@@@@@@@@@@@@@@@@@@@@@@@@@@@@@@@@@@@@@@@@@@@@@@@@@@@@@@@@@@",
"@@@@@@@@@@@@@@@@@@@@@@@@@@@@@@@@@@@@@@@@@@@@@@@@@@@@@@@@@@@@@@@@",
"@@@@@@@@@@@@@@@@@@@@@@@@@@@@@@@@@@@@@@@@@@@@@@@@@@@@@@@@@@@@@@@@",
"@@@@@@@@@@@@@@@@@@@@@@@@@@@@@@@@@@@@@@@@@@@@@@@@@@@@@@@@@@@@@@@@",
"@@@@@@@@@@@@@@@@@@@@@@@@@@@@@@@@@@@@@@@@@@@@@@@@@@@@@@@@@@@@@@@@",
"@@@@@@@@@@@@@@@@@@@@@@@@@@@@@@@@@@@@@@@@@@@@@@@@@@@@@@@@@@@@@@@@"
};
