/* XPM */
static char *result[] = {
/* columns rows colors chars-per-pixel */
"64 64 7 1 ",
"  c #090A14",
". c #241527",
"X c #341C27",
"o c #4D2B32",
"O c #7A4841",
"+ c #AD7757",
"@ c #FFFFFF",
/* pixels */
"@@@@@@@@@@@@@@@@@@@@@@@@@@@@@@@@@@@@@@@@@@@@@@@@@@@@@@@@@@@@@@@@",
"@@@@@@@@@@@@@@@@@@@@@@@@@@@@@@@@@@@@@@@@@@@@@@@@@@@@@@@@@@@@@@@@",
"@@@@@@@@@@@@@@@@@@@@@@@@@@@@@@@@@@@@@@@@@@@@@@@@@@@@@@@@@@@@@@@@",
"@@@@@@@@@@@@@@@@@@@@@@@@@@@@@@@@@@@@@@@@@@@@@@@@@@@@@@@@@@@@@@@@",
"@@@@@@@@@@@@@@@@@@@@@@@@@@@@@@@@@@@@@@@@@@@@@@@@@@@@@@@@@@@@@@@@",
"@@@@@@@@@@@@@@@@@@@@@@@@@@@@@@@@@@@@@@@@@@@@@@@@@@@@@@@@@@@@@@@@",
"@@@@@@@@@@@@@@@@@@@@@@@@@@@@@@@@@@@@@@@@@@@@@@@@@@@@@@@@@@@@@@@@",
"@@@@@@@@@@@@@@@@@@@@@@@@@@@@@@@@@@@@@@@@@@@@@@@@@@@@@@@@@@@@@@@@",
"@@@@@@@@@@@@@@@@@@@@@@@@@@@@@@@@@@@@@@@@@@@@@@@@@@@@@@@@@@@@@@@@",
"@@@@@@@@@@@@@@@@@@@@@@@@@@@@@@@@@@@@@@@@@@@@@@@@@@@@@@@@@@@@@@@@",
"@@@@@@@@@@@@@@@@@@@@@@@@@@@@@@@@@@@@@@@@@@@@@@@@@@@@@@@@@@@@@@@@",
"@@@@@@@@@@@@@@@@@@@@@@@@@@@@@@@@@@@@@@@@@@@@@@@@@@@@@@@@@@@@@@@@",
"@@@@@@@@@@@@@@@@@@@@@@@@@@@@@@@@@@@@@@@@@@@@@@@@@@@@@@@@@@@@@@@@",
"@@@@@@@@@@@@@@@@@@@@@@@@@@@@@@@@@@@@@@@@@@@@@@@@@@@@@@@@@@@@@@@@",
"@@@@@@@@@@@@@@@@@@@@@@@@@@@@@@@@@@@@@@@@@@@@@@@@@@@@@@@@@@@@@@@@",
"@@@@@@@@@@@@@@@@@@@@@@@@@@@@@@@@@@@@@@@@@@@@@@@@@@@@@@@@@@@@@@@@",
"@@@@@@@@@@@@@@@@@@@@@@@@@@@@@@@@@@@@@@@@@@@@@@@@@@@@@@@@@@@@@@@@",
"@@@@@@@@@@@@@@@@@@@@@@@@@@@@@@@@@@@@@@@@@@@@@@@@@@@@@@@@@@@@@@@@",
"@@@@@@@@@@@@@@@@@@@@@@@@@@@@@@@@@@@@@@@@@@@@@@@@@@@@@@@@@@@@@@@@",
"@@@@@@@@@@@@@@@@@@@@@@@@@@@@@@@@@@@@@@@@@@@@@@@@@@@@@@@@@@@@@@@@",
"@@@@@@@@@@@@@oooooooo@@@@@@@@@@@@@@@@@@@@@@@@@@@@@@@@@@@@@@@@@@@",
"@@@@@@@@@@@ooooooooooooo@@@@@@@@@@@@@@@@@@@@@@@@@@@@@@@@@@@@@@@@",
"@@@@@@@@@@oooooooooooooo++++@@@@@@@@@@@@@@@@@@@@@@@@@@@@@@@@@@@@",
"@@@@@@@@ooooooOOOoooooooo++++++++@@@@@@@@@@@@@@@@@@@@@@@@@@@@@@@",
"@@@@@@@ooooooooOOOooooooo+o++O++++@@@@@@@@@@@@@@@@@@@@@@@@@@@@@@",
"@@@@@@oooooOOOOooOOOooooooooOO+OOO++@@@@@@@@@@@@@@@@@@@@@@@@@@@@",
"@@@@@ooooooooOOOOOOOOOooooooOOOO+++++++@@@@@@@@@@@@@@@@@@@@@@@@@",
"@@@@@ooooooooOOOOooOOOooooooooO++OO+++++++@@@@@@@@@@@@@@@@@@@@@@",
"@@@@oooooOooooOOooOOOooooooooooOOOOOO++++++@@@@@@@@@@@@@@@@@@@@@",
"@@@@ooooooOOOOOOOOOOOOOOOoooOOoOOOOO+++++++++@@@@@@@@@@@@@@@@@@@",
"@@@ooooooOOOOOOOOOOOOOOOOooooOOOOOOO++O+++++++@@@@@@@@@@@@@@@@@@",
"@@@oooooOOOOoooOOOooOOOooooooOOOOOOO+OO++O+++++@@@@@@@@@@@@@@@@@",
"@@oooooooooooOOOOooOOOOoOoooOOOOOOOOOOO+OO++++++@@@@@@@@@@@@@@@@",
"@@ooooooooooOOOOOOOOOOOOOooOOoOOOOOOOOOOOO++O+++++@@@@@@@@@@@@@@",
"@oooXXoooooOOOOOOOOOOOOOooooooOOOOOOOOOOO+OOO++++++@@@@@@@@@@@@@",
"@XoXXoooooOOOoOOOOoOOOOOOOooOOOOOOOOOOOOOOOO++++++++@@@@@@@@@@@@",
"@XXXooooooOOoOOOOooOOOooOoooooOOOOOOOOOOOOOOO+OO+++++@@@@@@@@@@@",
"@XXXoXXooooooOOOooOOOOOooooooOOOOOOOOOOOOOOOOOO++++O+@@@@@@@@@@@",
"@@XXXXXooooooOOOOOOOOOOOOooooOOOOOOOOOOOOOOOOOOO++OO++@@@@@@@@@@",
"@@@XXXXoXXooOOOOOOOOOOOOoooOOOOOOOOOOOOOOOOOOOOOOOO+++@@@@@@@@@@",
"@@@@XXoXXooOOOoOooOooOOooXoOoooOOOOOOOOOOOOOOOOOOOO++O+@@@@@@@@@",
"@@@@@XXXXoOOOooooOOooOooXXoooooOOOOOOOOOOoOOOOOOOOooo+O+@@@@@@@@",
"@@@@@XXXXooooooooOOoooooXXoXooOOOoOOOOoOOoOOOOOOOOOXXo++@@@@@@@@",
"@@@@@@XXXooooooooOooXooXXXXXooOoooOoOoooooOoOOOOOOOOOO+++@@@@@@@",
"@@@@@@XXXXooXooXoooXXXXXXXXXXooooOOOooooooooOOOOOOOO.OO++@@@@@@@",
"@@@@@@@XXXoXXooXXXXXXXX@@@XXXXXoooOoooooooooOOOOOOOO.OO+@@@@@@@@",
"@@@@@@@..XXXooXXX@@@@@@@@@@@@XXXooooooooXXooOoOOOOoO.O+O@@@@@@@@",
"@@@@@@@@.XXXoXXX@@@@@@@@@@@@@@@XXXoooooooXXXooooOOoOOOO+@@@@@@@@",
"@@@@@@@@.XXXXXX@@@@@@@@@@@@@@@@@XXXooo..@@@XXoooOooOOOO+@@@@@@@@",
"@@@@@@@@..XX..@@@@@@@@@@@@@@@@@@X.XXoo.@@@@@XXooooooooo+@@@@@@@@",
"@@@@@@@@...X.@@@@@@@@@@@@@@@@@@@@..XX..@@@@@@XXXooooooo+@@@@@@@@",
"@@@@@@@@...X.@@@@@@@@@@@@@@@@@@@@..XX.@@@@@@@@XXXXXXXXXX@@@@@@@@",
"@@@@@@@@@....@@@@@@@@@@@@@@@@@@@@@....@@@@@@@@XXXXXXXX X@@@@@@@@",
"@@@@@@@@@.....@@@@@@@@@@@@@@@@@@@@@....@@@@@@@@XXXXXXX  @@@@@@@@",
"@@@@@@@@@@.....@@@@@@@@@@@@@@@@@@@@@....@@@@@@@@XX.X..  @@@@@@@@",
"@@@@@@@@@@@....@@@@@@@@@@@@@@@@@@@@@@...@@@@@@@@XX...X@@@@@@@@@@",
"@@@@@@@@@@@@@@@@@@@@@@@@@@@@@@@@@@@@@@@@@@@@@@@@@XXXX@@@@@@@@@@@",
"@@@@@@@@@@@@@@@@@@@@@@@@@@@@@@@@@@@@@@@@@@@@@@@@@@@@@@@@@@@@@@@@",
"@@@@@@@@@@@@@@@@@@@@@@@@@@@@@@@@@@@@@@@@@@@@@@@@@@@@@@@@@@@@@@@@",
"@@@@@@@@@@@@@@@@@@@@@@@@@@@@@@@@@@@@@@@@@@@@@@@@@@@@@@@@@@@@@@@@",
"@@@@@@@@@@@@@@@@@@@@@@@@@@@@@@@@@@@@@@@@@@@@@@@@@@@@@@@@@@@@@@@@",
"@@@@@@@@@@@@@@@@@@@@@@@@@@@@@@@@@@@@@@@@@@@@@@@@@@@@@@@@@@@@@@@@",
"@@@@@@@@@@@@@@@@@@@@@@@@@@@@@@@@@@@@@@@@@@@@@@@@@@@@@@@@@@@@@@@@",
"@@@@@@@@@@@@@@@@@@@@@@@@@@@@@@@@@@@@@@@@@@@@@@@@@@@@@@@@@@@@@@@@"
};
