/* XPM */
static char *result[] = {
/* columns rows colors chars-per-pixel */
"64 64 7 1 ",
"  c #090A14",
". c #241527",
"X c #341C27",
"o c #4D2B32",
"O c #7A4841",
"+ c #AD7757",
"@ c None",
/* pixels */
"@@@@@@@@@@@@@@@@@@@@@@@@@@@@@@@@@@@@@@@@@@@@@@@@@@@@@@@@@@@@@@@@",
"@@@@@@@@@@@@@@@@@@@@@@@@@@@@@@@@@@@@@@@@@@@@@@@@@@@@@@@@@@@@@@@@",
"@@@@@@@@@@@@@@@@@@@@@@@@@@@@@@@@@@@@@@@@@@@@@@@@@@@@@@@@@@@@@@@@",
"@@@@@@@@@@@@@@@@@@@@@@@@@@@@@@@@@@@@@@@@@@@@@@@@@@@@@@@@@@@@@@@@",
"@@@@@@@@@@@@@@@@@@@@@@@@@@@@@@@@@@@@@@@@@@@@@@@@@@@@@@@@@@@@@@@@",
"@@@@@@@@@@@@@@@@@@@@@@@@@@@@@@@@@@@@@@@@@@@@@@@@@@@@@@@@@@@@@@@@",
"@@@@@@@@@@@@@@@@@@@@@@@@@@@@@@@@@@@@@@@@@@@@@@@@@@@@@@@@@@@@@@@@",
"@@@@@@@@@@@@@@@@@@@@@@@@@@@@@@@@@@@@@@@@@@@@@@@@@@@@@@@@@@@@@@@@",
"@@@@@@@@@@@@@@@@@@@@@@@@@@@@@@@@@@@@@@@@@@@@@@@@@@@@@@@@@@@@@@@@",
"@@@@@@@@@@@@@@@@@@@@@@@@@@@@@@@@@@@@@@@@@@@@@@@@@@@@@@@@@@@@@@@@",
"@@@@@@@@@@@@@@@@@@@@@@@@@@@@@@@@@@@@@@@@@@@@@@@@@@@@@@@@@@@@@@@@",
"@@@@@@@@@@@@@@@@@@@@@@@@@@@@@@@@@@@@@@@@@@@@@@@@@@@@@@@@@@@@@@@@",
"@@@@@@@@@@@@@@@@@@@@@@@@@@@@@@@@@@@@@@@@@@@@@@@@@@@@@@@@@@@@@@@@",
"@@@@@@@@@@@@@@@@@@@@@@@@@@@@@@@@@@@@@@@@@@@@@@@@@@@@@@@@@@@@@@@@",
"@@@@@@@@@@@@@@@@@@@@@@@@@@@@@@@@@@@@@@@@@@@@@@@@@@@@@@@@@@@@@@@@",
"@@@@@@@@@@@@@@@@@@@@@@@@@@@@@@@@@@@@@@@@@@@@@@@@@@@@@@@@@@@@@@@@",
"@@@@@@@@@@@@@@@@@@@@@@@@@@@@@@@@@@@@@@@@@@@@@@@@@@@@@@@@@@@@@@@@",
"@@@@@@@@@@@@@@@@@@@@@@@@@@@@@@@@@@@@@@@@@@@@@@@@@@@@@@@@@@@@@@@@",
"@@@@@@@@@@@@@@@@@@@@@@@@@@@@@@@@@@@@@@@@@@@@@@@@@@@@@@@@@@@@@@@@",
"@@@@@@@@@@@@@@@@@@@@@@@@@@@@@@@@@@@@@@@@@@@@@@@@@@@@@@@@@@@@@@@@",
"@@@@@@@@@@@@@oooooooo@@@@@@@@@@@@@@@@@@@@@@@@@@@@@@@@@@@@@@@@@@@",
"@@@@@@@@@@@ooooooooooooo@@@@@@@@@@@@@@@@@@@@@@@@@@@@@@@@@@@@@@@@",
"@@@@@@@@@@oooooooooooooo++++@@@@@@@@@@@@@@@@@@@@@@@@@@@@@@@@@@@@",
"@@@@@@@@ooooooOOOoooooooo++++++++@@@@@@@@@@@@@@@@@@@@@@@@@@@@@@@",
"@@@@@@@ooooooooOOOooooooo+o++O++++@@@@@@@@@@@@@@@@@@@@@@@@@@@@@@",
"@@@@@@oooooOOOOooOOOooooooooOO+OOO++@@@@@@@@@@@@@@@@@@@@@@@@@@@@",
"@@@@@ooooooooOOOOOOOOOooooooOOOO+++++++@@@@@@@@@@@@@@@@@@@@@@@@@",
"@@@@@ooooooooOOOOooOOOooooooooO++OO++++++@@@@@@@@@@@@@@@@@@@@@@@",
"@@@@oooooOooooOOooOOOooooooooooOOOOOO+++++@@@@@@@@@@@@@@@@@@@@@@",
"@@@@ooooooOOOOOOOOOOOOOOOoooOOoOOOOO+++++++@@@@@@@@@@@@@@@@@@@@@",
"@@@ooooooOOOOOOOOOOOOOOOOooooOOOOOOO++O++++++@@@@@@@@@@@@@@@@@@@",
"@@@oooooOOOOoooOOOooOOOooooooOOOOOOO+OO++O++++@@@@@@@@@@@@@@@@@@",
"@@oooooooooooOOOOooOOOOoOoooOOOOOOOOOOO+OO+++++@@@@@@@@@@@@@@@@@",
"@@ooooooooooOOOOOOOOOOOOOooOOoOOOOOOOOOOOO++++++@@@@@@@@@@@@@@@@",
"@oooXXoooooOOOOOOOOOOOOOooooooOOOOOOOOOOO+++O+++++@@@@@@@@@@@@@@",
"@XoXXoooooOOOoOOOOoOOOOOOOooOOOOOOOOOOOOOOOOO++++++@@@@@@@@@@@@@",
"@XXXooooooOOoOOOOooOOOooOoooooOOOOOOOOOOOOOO++++++++@@@@@@@@@@@@",
"@XXXoXXooooooOOOooOOOOOooooooOOOOOOOOOOOOOOOO+OO+++++@@@@@@@@@@@",
"@@XXXXXooooooOOOOOOOOOOOOooooOOOOOOOOOOOOOOOOOO++++O+@@@@@@@@@@@",
"@@@XXXXoXXooOOOOOOOOOOOOoooOOOOOOOOOOOOOOOOOOOOO++OO++@@@@@@@@@@",
"@@@@XXoXXooOOOoOooOooOOooXoOoooOOOOOOOOOOOOOOOOOOOOO+++@@@@@@@@@",
"@@@@@XXXXoOOOooooOOooOooXXoooooOOOOOOOOOOoOOOOOOOOO++O+@@@@@@@@@",
"@@@@@XXXXooooooooOOoooooXXoXooOOOoOOOOoOOoOOOOOOOOOoo+O+@@@@@@@@",
"@@@@@@XXXooooooooOooXooXXXXXooOoooOoOoooooOoOOOOOOoXXo++@@@@@@@@",
"@@@@@@XXXXooXooXoooXXXXXXXXXXooooOOOooooooooOOOOOOOOOO+++@@@@@@@",
"@@@@@@@XXXoXXooXXXXXXXX@@@XXXXXoooOoooooooooooOOOOOO.OO++@@@@@@@",
"@@@@@@@..XXXooXXX@@@@@@@@@@@@XXXooooooooXXoooOOOOOOO.OO+@@@@@@@@",
"@@@@@@@@.XXXoXXX@@@@@@@@@@@@@@@XXXoooooooXXXooOOOOoO.O+O@@@@@@@@",
"@@@@@@@@.XXXXXX@@@@@@@@@@@@@@@@@XXXooo..@@@XooooOOoOOOO+@@@@@@@@",
"@@@@@@@@..XX..@@@@@@@@@@@@@@@@@@X.XXoo.@@@@XXoXXXooOOOO+@@@@@@@@",
"@@@@@@@@...X.@@@@@@@@@@@@@@@@@@@@..XX..@@@@@XXXXXoooooo+@@@@@@@@",
"@@@@@@@@...X.@@@@@@@@@@@@@@@@@@@@..XX.@@@@@@@XXXXXooooo+@@@@@@@@",
"@@@@@@@@@....@@@@@@@@@@@@@@@@@@@@@....@@@@@@@@XXXXXXXXXX@@@@@@@@",
"@@@@@@@@@.....@@@@@@@@@@@@@@@@@@@@@....@@@@@@@XXXXXXXX X@@@@@@@@",
"@@@@@@@@@@.....@@@@@@@@@@@@@@@@@@@@@....@@@@@@XXX.XX..  @@@@@@@@",
"@@@@@@@@@@@....@@@@@@@@@@@@@@@@@@@@@@...@@@@@@@XX....X  @@@@@@@@",
"@@@@@@@@@@@@@@@@@@@@@@@@@@@@@@@@@@@@@@@@@@@@@@@XX.XXX@@@@@@@@@@@",
"@@@@@@@@@@@@@@@@@@@@@@@@@@@@@@@@@@@@@@@@@@@@@@@@X.X@@@@@@@@@@@@@",
"@@@@@@@@@@@@@@@@@@@@@@@@@@@@@@@@@@@@@@@@@@@@@@@@@@@@@@@@@@@@@@@@",
"@@@@@@@@@@@@@@@@@@@@@@@@@@@@@@@@@@@@@@@@@@@@@@@@@@@@@@@@@@@@@@@@",
"@@@@@@@@@@@@@@@@@@@@@@@@@@@@@@@@@@@@@@@@@@@@@@@@@@@@@@@@@@@@@@@@",
"@@@@@@@@@@@@@@@@@@@@@@@@@@@@@@@@@@@@@@@@@@@@@@@@@@@@@@@@@@@@@@@@",
"@@@@@@@@@@@@@@@@@@@@@@@@@@@@@@@@@@@@@@@@@@@@@@@@@@@@@@@@@@@@@@@@",
"@@@@@@@@@@@@@@@@@@@@@@@@@@@@@@@@@@@@@@@@@@@@@@@@@@@@@@@@@@@@@@@@"
};
