/* XPM */
static char *a998a893d8694764f5c7a5b28c772de5Urn0eNnyDpVm0oMC[] = {
/* columns rows colors chars-per-pixel */
"64 64 7 1 ",
"  c None",
". c #090A14",
"X c #241527",
"o c #341C27",
"O c #4D2B32",
"+ c #7A4841",
"@ c #AD7757",
/* pixels */
"                                                                ",
"                                                                ",
"                                                                ",
"                                                                ",
"                                                                ",
"                                                                ",
"                                                                ",
"                                                                ",
"                                                                ",
"                                                                ",
"                                                                ",
"                                                                ",
"                                                                ",
"                                                                ",
"                                                                ",
"                                                                ",
"                                                                ",
"                                                                ",
"                                                                ",
"                                                                ",
"                                                                ",
"                                       @@@@@@@@@@               ",
"                                      @@++@@+++@@@              ",
"                                     @@@@@Oo@+@++@+@            ",
"                           @@@@@@@   @@@@@Oo@+++++@@@           ",
"                 OOOOO@@@@@@@@@@@@@@@@@@@@@Oo++++++++@@         ",
"               OOOOOOOOO@++++@@@@@@@@@@@+@@@O++XXX++OOooO       ",
"              OOOOOOOOOOOOO+@@++++@@@@@+@@+++++++++OOOo...      ",
"            OOOOOOOOOOOOOOOOOO+++@@++@++@@++++++OO+OOooo.o      ",
"           OOOOO+++OOOO+OOOOO++++@++@@+++@@++++++OOOooooXo      ",
"          OOOOOOO+++O+++OOOO++++++++@@@++++++++++OOOooooXo      ",
"         OOOO++++OO++++OOOOOOO+++++++@+++++++++O++OOooooXo      ",
"         OOOOOO++++++++OOO+++++++++++@+++++++++OOOOoooXXXo      ",
"        OOOOOOO++++OO+++OOOO+++++++++++++++OO+OOOoooooooo       ",
"        OOO+OOOO++OO+++++OOOO+++++++++++++++OOoooooooooo        ",
"       OOOOO++++++++++++++OOOO+++++++++++OOOoooo                ",
"       OOOO+++++++++++++OOOOO++++++++++O++Ooo                   ",
"      OOOO++++O+++O+++OOOOO++++++++++O++OOOO                    ",
"     ooOOOOOOOO++O+++++OOOO+O++++++++OO+OOO                     ",
"     oooOOOOOO+++++++++OOOOOO+++++++++OOOO                      ",
"     oOOOOO+O+++++++++++OOOO+++++++O++OO                        ",
"     ooOOOOO+++O++++O++OOOO+++O++++OOOO                         ",
"     oOOooOO++O++++OO++OOOO+OOO+++++OO                          ",
"     ooooOOOOOO+++OO+++OOOOOOO++OO+OOO                          ",
"     oooOOOOOOO+++++++++OOOoOOOOOO+OOO                          ",
"     oooOOOOOO++++++++++OOOooooOOOOOOO                          ",
"     ooOOoOOO+++O+OO+OO+oOOOooooOOOXX                           ",
"     oooooOO+++OOOO++OOOOOOoo XooOOX                            ",
"      oooooOOOOOOOOOOOOOoooo  XXooXX                            ",
"       ooooOOoOOoOOoOOOoooo   XXooX                             ",
"        oooOoooooOOoooooo      XXoX                             ",
"        ooooooooooooo          XXXX                             ",
"         ooooXoooooo           XXXX                             ",
"           oooXXoX              XXXX                            ",
"              XXXXX              XXXX                           ",
"               XXXX               XXX                           ",
"                                                                ",
"                                                                ",
"                                                                ",
"                                                                ",
"                                                                ",
"                                                                ",
"                                                                ",
"                                                                "
};
