/* XPM */
static char *_c58889121174fe5bf6de6818331f695w3RYhgTuJfsvivT2[] = {
/* columns rows colors chars-per-pixel */
"32 32 13 1 ",
"  c None",
". c #181425",
"X c #3E2731",
"o c #733E39",
"O c #262B44",
"+ c #3A4466",
"@ c #A22633",
"# c #FF0044",
"$ c #E43B44",
"% c #5A6988",
"& c #E8B796",
"* c #EAD4AA",
"= c white",
/* pixels */
"   .XX......XX...........XX...  ",
"  .@ooO@@@@@ooO@@@@@@@@@@ooO@@. ",
" .$@oo@@$@$@oo@@$@$@$@$@$oo@$@$.",
" .@$oo@$$$$$oo@$$$$$$$$$$oo@$$@.",
"+.$$oo@$$$$$oo@$$$$$$$$$$oo@$$$.",
"+.$$Xo@$$$$$oX@$$$$$$$$$$Xo@$$$.",
"%.@$oX@$$$$$Xo@$$$$$$$$$$oX@$$@.",
"+.$@XX@@$@$@XX@@$@$@$@$@$Xo@$@$.",
"% .@XXO@@@@@XXO@@@@@@@@@@XXO@@. ",
"%  OXXOOOOOOXXOOOOOOOOOOOXXOOO  ",
"+  .XX......XX...........XX..   ",
"+ .@XXO@@@@@XXO@@@@@@@@@@XXO@.  ",
"+.@$XX@$@$@$X&&&&&*&******X@@$. ",
".@$$XX@$$$$$X&&&&*********X@$@. ",
".$$$XX@$$$$$X&&&***@*****&X@$$. ",
".$$$XX@$$$$$X&&&**@#@***&&X@$$.%",
".@$$XX@$$$$$X&&***@=@***&&X@$@.%",
".$@$XX@$@$@$X&***@#=#@*&&&X@@$.+",
" .@@XXO@@@@@X****@#=#@*&&&XO@@.%",
"  OOXXOOOOOOX***@#####@&&*XOOO %",
"   .XX......X***@##=##@&&*X..  +",
"  .@XXO@@@@@X**@@@@@@@@@**XO@. +",
" .$@XX@@$@$@X**&&****&&&**X@$@.+",
" .@$XX@$$$$$X*&&****&&&**&X@$$@.",
" .$$XX@$$$$$XX@@@@@@@@@@@XX@$$$.",
" .$$XX@$$$$$XX@$$$$$$$$$$XX@$$$.",
" .@$XX@$$$$$XX@$$$$$$$$$$XX@$$@.",
" .$@XX@@$@$@XX@@$@$@$@$@$XX@$@$.",
" .@@XX@@@@@@XX@@@@@@@@@@@XX@@@@.",
" .@OXX@O@O@OXX@O@O@O@O@O@XXO@O@.",
"  OOXXOOOOOOXXOOOOOOOOOOOXXOOOO ",
"   .XX......XX...........XX...  "
};
