/* XPM */
static char *result[] = {
/* columns rows colors chars-per-pixel */
"64 64 7 1 ",
"  c #090A14",
". c #241527",
"X c #341C27",
"o c #4D2B32",
"O c #7A4841",
"+ c #AD7757",
"@ c #FFFFFF",
/* pixels */
"@@@@@@@@@@@@@@@@@@@@@@@@@@@@@@@@@@@@@@@@@@@@@@@@@@@@@@@@@@@@@@@@",
"@@@@@@@@@@@@@@@@@@@@@@@@@@@@@@@@@@@@@@@@@@@@@@@@@@@@@@@@@@@@@@@@",
"@@@@@@@@@@@@@@@@@@@@@@@@@@@@@@@@@@@@@@@@@@@@@@@@@@@@@@@@@@@@@@@@",
"@@@@@@@@@@@@@@@@@@@@@@@@@@@@@@@@@@@@@@@@@@@@@@@@@@@@@@@@@@@@@@@@",
"@@@@@@@@@@@@@@@@@@@@@@@@@@@@@@@@@@@@@@@@@@@@@@@@@@@@@@@@@@@@@@@@",
"@@@@@@@@@@@@@@@@@@@@@@@@@@@@@@@@@@@@@@@@@@@@@@@@@@@@@@@@@@@@@@@@",
"@@@@@@@@@@@@@@@@@@@@@@@@@@@@@@@@@@@@@@@@@@@@@@@@@@@@@@@@@@@@@@@@",
"@@@@@@@@@@@@@@@@@@@@@@@@@@@@@@@@@@@@@@@@@@@@@@@@@@@@@@@@@@@@@@@@",
"@@@@@@@@@@@@@@@@@@@@@@@@@@@@@@@@@@@@@@@@@@@@@@@@@@@@@@@@@@@@@@@@",
"@@@@@@@@@@@@@@@@@@@@@@@@@@@@@@@@@@@@@@@@@@@@@@@@@@@@@@@@@@@@@@@@",
"@@@@@@@@@@@@@@@@@@@@@@@@@@@@@@@@@@@@@@@@@@@@@@@@@@@@@@@@@@@@@@@@",
"@@@@@@@@@@@@@@@@@@@@@@@@@@@@@@@@@@@@@@@@@@@@@@@@@@@@@@@@@@@@@@@@",
"@@@@@@@@@@@@@@@@@@@@@@@@@@@@@@@@@@@@@@@@@@@@@@@@@@@@@@@@@@@@@@@@",
"@@@@@@@@@@@@@@@@@@@@@@@@@@@@@@@@@@@@@@@@@@@@@@@@@@@@@@@@@@@@@@@@",
"@@@@@@@@@@@@@@@@@@@@@@@@@@@@@@@@@@@@@@@@@@@@@@@@@@@@@@@@@@@@@@@@",
"@@@@@@@@@@@@@@@@@@@@@@@@@@@@@@@@@@@@@@@@@@@@@@@@@@@@@@@@@@@@@@@@",
"@@@@@@@@@@@@@@@@@@@@@@@@@@@@@@@@@@@@@@@@@@@@@@@@@@@@@@@@@@@@@@@@",
"@@@@@@@@@@@@@@@@@@@@@@@@@@@@@@@@@@@@@@@@@@@@@@@@@@@@@@@@@@@@@@@@",
"@@@@@@@@@@@@@@@@@@@@@@@@@@@@@@@@@@@@@@@@@@@@@@@@@@@@@@@@@@@@@@@@",
"@@@@@@@@@@@@@@@@@@@@@@@@@@@@@@@@@@@@@@@@@@@@@@@@@@@@@@@@@@@@@@@@",
"@@@@@@@@@@@@@@@@@@@@@@@@@@@@@@@@@@@@@@@@@@@@@@@@@@@@@@@@@@@@@@@@",
"@@@@@@@@@@@@@@@@@@@@@@@@@@@@@@@@@@@@@@@@@@@@@@@@@@@@@@@@@@@@@@@@",
"@@@@@@@@@@@@@@@@@@@@@@@@@@@@@@@@@@@@@@@++++++++++@@@@@@@@@@@@@@@",
"@@@@@@@@@@@@@@@@@@@@@@@@@@@@@@@@@@@@@@++OO++OOO+++@@@@@@@@@@@@@@",
"@@@@@@@@@@@@@@@@@@@@@@@@@@@@@@@@@@@@@+++++oX+O+OO+O+@@@@@@@@@@@@",
"@@@@@@@@@@@@@@@@@@@@@@@@@@@+++++++@@++++++oX+OOOOO+++@@@@@@@@@@@",
"@@@@@@@@@@@@@@@oooooooo++++++++++++++++++++oXOOOOOOOO++@@@@@@@@@",
"@@@@@@@@@@@@@@oooooooooo+OOOO+++++++++++O+++oOO...OOooXXo@@@@@@@",
"@@@@@@@@@@@@oooooooooooooooO++OOOO+++++O++OOOOOOOOOoooX   @@@@@@",
"@@@@@@@@@@@oooooOOOooooOooooooOOO++OO+OO++OOOOOOooOooXXX X@@@@@@",
"@@@@@@@@@@oooooooOOOoOOOoooooOOOO+OO++OOO++OOOOOOoooXXXX.X@@@@@@",
"@@@@@@@@@ooooOOOOooOOOOoooooOOOOOOOO+++OOOOOOOOOOoooXXXX.X@@@@@@",
"@@@@@@@@@ooooooOOOOOOOOoooooooOOOOOOO+OOOOOOOOOoOOooXXXX.X@@@@@@",
"@@@@@@@@oooooooOOOOooOOOoooOOOOOOOOOO+OOOOOOOOOooooXXX...X@@@@@@",
"@@@@@@@@oooOooooOOooOOOOOoooOOOOOOOOOOOOOOOooOoooXXXXXXXX@@@@@@@",
"@@@@@@@oooooOOOOOOOOOOOOOOoooOOOOOOOOOOOOOOOooXXXXXXXXXX@@@@@@@@",
"@@@@@@@ooooOOOOOOOOOOOOOooooooOOOOOOOOOOOoooXXXX@@@@@@@@@@@@@@@@",
"@@@@@@ooooOOOOoOOOoOOOoooooooOOOOOOOOOOoOOoXX@@@@@@@@@@@@@@@@@@@",
"@@@@@XXooooooooOOoOOOOOooooOOOOOOOOOOoOOoooo@@@@@@@@@@@@@@@@@@@@",
"@@@@@XXXooooooOOOOOOOOOooooOoOOOOOOOOooOooo@@@@@@@@@@@@@@@@@@@@@",
"@@@@@XoooooOoOOOOOOOOOOOoooooOOOOOOOOOoooo@@@@@@@@@@@@@@@@@@@@@@",
"@@@@@XXoooooOOOoOOOOoOOoooooOOOOOOOoOOoo@@@@@@@@@@@@@@@@@@@@@@@@",
"@@@@@XooXXooOOoOOOOooOOooooOOOoOOOOoooo@@@@@@@@@@@@@@@@@@@@@@@@@",
"@@@@@XXXXooooooOOOooOOOooooOoooOOOOOoo@@@@@@@@@@@@@@@@@@@@@@@@@@",
"@@@@@XXXoooooooOOOOOOOOOooooooOOooOooo@@@@@@@@@@@@@@@@@@@@@@@@@@",
"@@@@@XXXooooooOOOOOOOOOOoooXooooooOooo@@@@@@@@@@@@@@@@@@@@@@@@@@",
"@@@@@XXooXoooOOOoOooOooOXoooXXXooooooo@@@@@@@@@@@@@@@@@@@@@@@@@@",
"@@@@@XXXXXooOOOooooOOooooooXXXXXooo..@@@@@@@@@@@@@@@@@@@@@@@@@@@",
"@@@@@@XXXXXoooooooooooooXXXXXX.XXoo.@@@@@@@@@@@@@@@@@@@@@@@@@@@@",
"@@@@@@@XXXXooXooXooXoooXXXXX@@..XX..@@@@@@@@@@@@@@@@@@@@@@@@@@@@",
"@@@@@@@@XXXoXXXXXooXXXXXX@@@@@..XX.@@@@@@@@@@@@@@@@@@@@@@@@@@@@@",
"@@@@@@@@XXXXXXXXXXXXX@@@@@@@@@...X.@@@@@@@@@@@@@@@@@@@@@@@@@@@@@",
"@@@@@@@@@XXXX.XXXXXX@@@@@@@@@@@....@@@@@@@@@@@@@@@@@@@@@@@@@@@@@",
"@@@@@@@@@@@XXX..X.@@@@@@@@@@@@@@....@@@@@@@@@@@@@@@@@@@@@@@@@@@@",
"@@@@@@@@@@@@@@.....@@@@@@@@@@@@@@....@@@@@@@@@@@@@@@@@@@@@@@@@@@",
"@@@@@@@@@@@@@@@....@@@@@@@@@@@@@@@...@@@@@@@@@@@@@@@@@@@@@@@@@@@",
"@@@@@@@@@@@@@@@@@@@@@@@@@@@@@@@@@@@@@@@@@@@@@@@@@@@@@@@@@@@@@@@@",
"@@@@@@@@@@@@@@@@@@@@@@@@@@@@@@@@@@@@@@@@@@@@@@@@@@@@@@@@@@@@@@@@",
"@@@@@@@@@@@@@@@@@@@@@@@@@@@@@@@@@@@@@@@@@@@@@@@@@@@@@@@@@@@@@@@@",
"@@@@@@@@@@@@@@@@@@@@@@@@@@@@@@@@@@@@@@@@@@@@@@@@@@@@@@@@@@@@@@@@",
"@@@@@@@@@@@@@@@@@@@@@@@@@@@@@@@@@@@@@@@@@@@@@@@@@@@@@@@@@@@@@@@@",
"@@@@@@@@@@@@@@@@@@@@@@@@@@@@@@@@@@@@@@@@@@@@@@@@@@@@@@@@@@@@@@@@",
"@@@@@@@@@@@@@@@@@@@@@@@@@@@@@@@@@@@@@@@@@@@@@@@@@@@@@@@@@@@@@@@@",
"@@@@@@@@@@@@@@@@@@@@@@@@@@@@@@@@@@@@@@@@@@@@@@@@@@@@@@@@@@@@@@@@"
};
