/* XPM */
static char *result[] = {
/* columns rows colors chars-per-pixel */
"64 64 7 1 ",
"  c #090A14",
". c #241527",
"X c #341C27",
"o c #4D2B32",
"O c #7A4841",
"+ c #AD7757",
"@ c None",
/* pixels */
"@@@@@@@@@@@@@@@@@@@@@@@@@@@@@@@@@@@@@@@@@@@@@@@@@@@@@@@@@@@@@@@@",
"@@@@@@@@@@@@@@@@@@@@@@@@@@@@@@@@@@@@@@@@@@@@@@@@@@@@@@@@@@@@@@@@",
"@@@@@@@@@@@@@@@@@@@@@@@@@@@@@@@@@@@@@@@@@@@@@@@@@@@@@@@@@@@@@@@@",
"@@@@@@@@@@@@@@@@@@@@@@@@@@@@@@@@@@@@@@@@@@@@@@@@@@@@@@@@@@@@@@@@",
"@@@@@@@@@@@@@@@@@@@@@@@@@@@@@@@@@@@@@@@@@@@@@@@@@@@@@@@@@@@@@@@@",
"@@@@@@@@@@@@@@@@@@@@@@@@@@@@@@@@@@@@@@@@@@@@@@@@@@@@@@@@@@@@@@@@",
"@@@@@@@@@@@@@@@@@@@@@@@@@@@@@@@@@@@@@@@@@@@@@@@@@@@@@@@@@@@@@@@@",
"@@@@@@@@@@@@@@@@@@@@@@@@@@@@@@@@@@@@@@@@@@@@@@@@@@@@@@@@@@@@@@@@",
"@@@@@@@@@@@@@@@@@@@@@@@@@@@@@@@@@@@@@@@@@@@@@@@@@@@@@@@@@@@@@@@@",
"@@@@@@@@@@@@@@@@@@@@@@@@@@@@@@@@@@@@@@@@@@@@@@@@@@@@@@@@@@@@@@@@",
"@@@@@@@@@@@@@@@@@@@@@@@@@@@@@@@@@@@@@@@@@@@@@@@@@@@@@@@@@@@@@@@@",
"@@@@@@@@@@@@@@@@@@@@@@@@@@@@@@@@@@@@@@@@@@@@@@@@@@@@@@@@@@@@@@@@",
"@@@@@@@@@@@@@@@@@@@@@@@@@@@@@@@@@@@@@@@@@@@@@@@@@@@@@@@@@@@@@@@@",
"@@@@@@@@@@@@@@@@@@@@@@@@@@@@@@@@@@@@@@@@@@@@@@@@@@@@@@@@@@@@@@@@",
"@@@@@@@@@@@@@@@@@@@@@@@@@@@@@@@@@@@@@@@@@@@@@@@@@@@@@@@@@@@@@@@@",
"@@@@@@@@@@@@@@@@@@@@@@@@@@@@@@@@@@@@@@@@@@@@@@@@@@@@@@@@@@@@@@@@",
"@@@@@@@@@@@@@@@@@@@@@@@@@@@@@@@@@@@@@@@@@@@@@@@@@@@@@@@@@@@@@@@@",
"@@@@@@@@@@@@@@@@@@@@@@@@@@@@@@@@@@@@@@@@@@@@@@@@@@@@@@@@@@@@@@@@",
"@@@@@@@@@@@@@@@@@@@@@@@@@@@@@@@@@@@@@@@@@@@@@@@@@@@@@@@@@@@@@@@@",
"@@@@@@@@@@@@@@@@@@@@@@@@@@@@@@@@@@@@@@@@@@@@@@@@@@@@@@@@@@@@@@@@",
"@@@@@@@@@@@@@@@@@@@@@@@@@@@@@@@@@@@@@@@@@@@@@@@@@@@@@@@@@@@@@@@@",
"@@@@@@@@@@@@@@@@@@@@@@@@@@@@@@@@@@@@@@@@@@@@@@@@@@@@@@@@@@@@@@@@",
"@@@@@@@@@@@@@@@@@@@@@@@@@@@@@@@@@@@@@@@@@@@@@@@@@@@@@@@@@@@@@@@@",
"@@@@@@@@@@@@@@@@@@@@@@@@@@@@@@@@@@@@@@@++++++++++@@@@@@@@@@@@@@@",
"@@@@@@@@@@@@@@@@@@@@@@@@@@@@@@@@@@@@@@++OO++OOO+++@@@@@@@@@@@@@@",
"@@@@@@@@@@@@@@@@@@@@@@@@@@@+++++@@@@@+++++oX+O+OO+O+@@@@@@@@@@@@",
"@@@@@@@@@@@@@@@oooooooo++++++++++++@++++++oX+OOOOO+++@@@@@@@@@@@",
"@@@@@@@@@@@@@@oooooooooo+OOOO++++++++++++++oXOOOOOOOO++@@@@@@@@@",
"@@@@@@@@@@@@oooooooooooooooO++OOOO++++++O+++oOO...OOooXXo@@@@@@@",
"@@@@@@@@@@@oooooOOOooooOooooooOOO++++++O++OOOOOOOOOoooX   @@@@@@",
"@@@@@@@@@@oooooooOOOoOOOoooooOOOO+OOO+OO++OOOOOOooOooXXX X@@@@@@",
"@@@@@@@@@ooooOOOOooOOOOoooooOOOOOOOO++OOO++OOOOOOoooXXXX.X@@@@@@",
"@@@@@@@@@ooooooOOOOOOOOoooooooOOOOOO+++OOOOOOOOOOoooXXXX.X@@@@@@",
"@@@@@@@@oooooooOOOOooOOOoooOOOOOOOOOO+OOOOOOOOOoOOooXXXX.X@@@@@@",
"@@@@@@@@oooOooooOOooOOOOOoooOOOOOOOOO+OOOOOOOOOooooXXX...X@@@@@@",
"@@@@@@@oooooOOOOOOOOOOOOOOoooOOOOOOOOOOOOOOooOoooXXXXXXXX@@@@@@@",
"@@@@@@@ooooOOOOOOOOOOOOOooooooOOOOOOOOOOOOOOooXXXXXXXXXX@@@@@@@@",
"@@@@@@ooooOOOOoOOOoOOOoooooooOOOOOOOOOOOOoooXXXX@@@@@@@@@@@@@@@@",
"@@@@@XXooooooooOOoOOOOOooooOOOOOOOOOOoOOOOoXX@@@@@@@@@@@@@@@@@@@",
"@@@@@XXXooooooOOOOOOOOOooooOoOOOOOOOOooOoooo@@@@@@@@@@@@@@@@@@@@",
"@@@@@XoooooOoOOOOOOOOOOOoooooOOOOOOOOOoooo@@@@@@@@@@@@@@@@@@@@@@",
"@@@@@XXoooooOOOoOOOOoOOoooooOOOOOOOoOOoo@@@@@@@@@@@@@@@@@@@@@@@@",
"@@@@@XooXXooOOoOOOOooOOooooOOOoOOOOoooo@@@@@@@@@@@@@@@@@@@@@@@@@",
"@@@@@XXXXooooooOOOooOOOooooOoooOOOOOoo@@@@@@@@@@@@@@@@@@@@@@@@@@",
"@@@@@XXXoooooooOOOOOOOOOooooooOOooOooo@@@@@@@@@@@@@@@@@@@@@@@@@@",
"@@@@@XXXooooooOOOOOOOOOOoooXooooooOooo@@@@@@@@@@@@@@@@@@@@@@@@@@",
"@@@@@XXooXoooOOOoOooOooOXoooXXXooooooo@@@@@@@@@@@@@@@@@@@@@@@@@@",
"@@@@@XXXXXooOOOooooOOooooooXXXXXooo..@@@@@@@@@@@@@@@@@@@@@@@@@@@",
"@@@@@@XXXXXoooooooooooooXXXXXX.XXoo.@@@@@@@@@@@@@@@@@@@@@@@@@@@@",
"@@@@@@@XXXXooXooXooXoooXXXXX@@..XX..@@@@@@@@@@@@@@@@@@@@@@@@@@@@",
"@@@@@@@@XXXoXXXXXooXXXXXX@@@@@..XX.@@@@@@@@@@@@@@@@@@@@@@@@@@@@@",
"@@@@@@@@XXXXXXXXXXXXX@@@@@@@@@...X.@@@@@@@@@@@@@@@@@@@@@@@@@@@@@",
"@@@@@@@@@XXXX.XXXXXX@@@@@@@@@@@....@@@@@@@@@@@@@@@@@@@@@@@@@@@@@",
"@@@@@@@@@@@XXX..X.@@@@@@@@@@@@@@....@@@@@@@@@@@@@@@@@@@@@@@@@@@@",
"@@@@@@@@@@@@@@.....@@@@@@@@@@@@@@....@@@@@@@@@@@@@@@@@@@@@@@@@@@",
"@@@@@@@@@@@@@@@....@@@@@@@@@@@@@@@...@@@@@@@@@@@@@@@@@@@@@@@@@@@",
"@@@@@@@@@@@@@@@@@@@@@@@@@@@@@@@@@@@@@@@@@@@@@@@@@@@@@@@@@@@@@@@@",
"@@@@@@@@@@@@@@@@@@@@@@@@@@@@@@@@@@@@@@@@@@@@@@@@@@@@@@@@@@@@@@@@",
"@@@@@@@@@@@@@@@@@@@@@@@@@@@@@@@@@@@@@@@@@@@@@@@@@@@@@@@@@@@@@@@@",
"@@@@@@@@@@@@@@@@@@@@@@@@@@@@@@@@@@@@@@@@@@@@@@@@@@@@@@@@@@@@@@@@",
"@@@@@@@@@@@@@@@@@@@@@@@@@@@@@@@@@@@@@@@@@@@@@@@@@@@@@@@@@@@@@@@@",
"@@@@@@@@@@@@@@@@@@@@@@@@@@@@@@@@@@@@@@@@@@@@@@@@@@@@@@@@@@@@@@@@",
"@@@@@@@@@@@@@@@@@@@@@@@@@@@@@@@@@@@@@@@@@@@@@@@@@@@@@@@@@@@@@@@@",
"@@@@@@@@@@@@@@@@@@@@@@@@@@@@@@@@@@@@@@@@@@@@@@@@@@@@@@@@@@@@@@@@"
};
